# xmcd
#
# Track frame offsets:
#	150
#	24537
#	38840
#	53173
#	67334
#	87362
#	100422
#	110578
#	134902
#	145852
#	156845
#	171132
#	182644
#	192141
#
# Disc length: 2681 seconds
#
# Revision: 0
# Processed by: cddbd v1.5.2PL0 Copyright (c) Steve Scherf et al.
# Submitted via: EasyCDDAExtractor 16.0.6.1
#
DISCID=cd0a770e
DTITLE=Άνευ ερμηνευτού - Παραδ. τραγούδια από τα Βαλκάνια
DYEAR=1900
DGENRE=Ποικίλη
TTITLE0=Άνευ ερμηνευτού - Τσιγγάνικος Σερβίας [Σερβία]
TTITLE1=Άνευ ερμηνευτού - Αντικριστός χορός Μακεδονίας [Ελλάδα]
TTITLE2=Χορωδία - Γαμήλιο τραγούδι της Περμέτης [Αλβανία]
TTITLE3=Άνευ ερμηνευτού - Τσαπαράλ [Βουλγαρία]
TTITLE4=Άνευ ερμηνευτού - Τσάμικος [Ελλάδα]
TTITLE5=Χορωδία - Τα πρώτα χιόνια [Αλβανία]
TTITLE6=Άνευ ερμηνευτού - Χόρα Σέρβικη [Σερβία]
TTITLE7=Άγνωστος - Οι κλέφτες μπαμπερίζονται [Ελλάδα]
TTITLE8=Χορωδία - Δώσ' μου νερό απ' το χέρι σου [Αλβανία]
TTITLE9=Άνευ ερμηνευτού - Χόρα Ρουμάνικη [Ρουμανία]
TTITLE10=Άνευ ερμηνευτού - Θρακιώτικο [Ελλάδα]
TTITLE11=Άνευ ερμηνευτού - Σίρμπα Βουλγάρικη [Βουλγαρία]
TTITLE12=Άνευ ερμηνευτού - Χόρα από το Βουκουρέστι [Ρουμανία]
TTITLE13=Άνευ ερμηνευτού - Στον Άδη θα κατέβω [τσάμικο, Ελλάδα]
EXTD=
EXTT0=
EXTT1=
EXTT2=
EXTT3=
EXTT4=
EXTT5=
EXTT6=
EXTT7=
EXTT8=
EXTT9=
EXTT10=
EXTT11=
EXTT12=
EXTT13=
PLAYORDER=
